<svg xmlns="http://www.w3.org/2000/svg" viewBox="0 0 1200 780" role="img" aria-label="Interior lighting and material plan">
  <rect width="1200" height="780" fill="#101827"/>
  <path d="M0 600h1200v180H0z" fill="#202b3f"/>
  <path d="M132 122h936v470H132z" rx="36" fill="#eef1ec"/>
  <path d="M196 188h360v180H196z" rx="20" fill="#d9e5dd"/>
  <path d="M628 188h288v340H628z" rx="20" fill="#c79b72"/>
  <path d="M196 420h360v108H196z" rx="20" fill="#f8f1e7"/>
  <path d="M260 72v95m224-95v95m416-95v95" stroke="#f5d29a" stroke-width="10" stroke-linecap="round"/>
  <circle cx="260" cy="190" r="44" fill="#ffd88f"/>
  <circle cx="484" cy="190" r="44" fill="#ffd88f"/>
  <circle cx="900" cy="190" r="44" fill="#ffd88f"/>
  <path d="M710 288h124m-124 48h124m-124 48h124" stroke="#172033" stroke-width="10" stroke-linecap="round" opacity=".55"/>
  <path d="M220 636h760" stroke="#e6d8c8" stroke-width="6" opacity=".25"/>
</svg>
